<?xml version="1.0" standalone="no"?>
<!DOCTYPE svg PUBLIC "-//W3C//DTD SVG 20010904//EN"
 "http://www.w3.org/TR/2001/REC-SVG-20010904/DTD/svg10.dtd">
<svg version="1.0" xmlns="http://www.w3.org/2000/svg"
 width="311.000000pt" height="105.000000pt" viewBox="0 0 311.000000 105.000000"
 preserveAspectRatio="xMidYMid meet">

<g transform="translate(0.000000,105.000000) scale(0.100000,-0.100000)"
fill="#000000" stroke="none">
<path d="M1088 993 c-9 -10 -26 -38 -38 -63 -32 -63 -168 -258 -209 -298 -39
-39 -35 -63 14 -72 16 -3 30 -11 33 -17 3 -10 -12 -13 -52 -13 l-56 0 0 39 c0
31 -6 44 -26 60 -15 12 -35 21 -46 21 -23 0 -66 -42 -90 -88 -23 -43 -38 -40
-38 6 0 37 1 37 85 76 146 67 203 135 172 208 -18 42 -61 83 -110 103 -48 20
-257 38 -274 23 -16 -13 -16 -33 -2 -56 10 -16 5 -112 -5 -112 -2 0 -17 7 -34
15 -27 14 -34 14 -59 1 -100 -52 -164 -204 -113 -269 15 -19 20 -40 20 -91 l0
-66 50 0 50 0 0 -53 c0 -28 -4 -67 -9 -85 -9 -31 -8 -33 12 -30 30 4 65 62 73
119 6 48 7 49 40 49 32 0 34 -2 34 -36 0 -47 16 -74 44 -74 19 0 25 8 36 55
l13 55 47 0 47 0 6 -40 c11 -87 50 -92 123 -15 52 55 53 55 112 55 66 0 84
-16 52 -45 -17 -16 -21 -16 -56 1 -35 17 -37 17 -50 -1 -18 -24 -14 -37 17
-52 62 -32 153 -6 196 56 15 22 31 40 34 41 3 0 13 -18 21 -39 31 -78 99 -91
141 -26 25 40 33 43 42 15 9 -29 54 -60 86 -60 18 0 42 12 65 32 26 23 39 29
42 20 8 -24 45 -52 69 -52 13 0 35 11 49 25 l25 26 32 -27 c37 -31 86 -28 123
7 20 19 24 20 24 6 0 -9 -31 -47 -69 -85 -52 -51 -71 -77 -76 -104 -9 -49 1
-75 35 -93 45 -23 85 -19 122 14 40 35 54 82 57 188 2 73 5 81 42 135 22 32
53 87 70 123 25 55 33 65 55 65 l25 0 -7 -84 c-8 -96 4 -145 43 -176 34 -27
69 -25 96 4 l22 24 28 -24 c45 -38 99 -29 144 24 18 21 23 23 23 10 0 -21 46
-58 72 -58 10 0 30 11 43 25 14 13 25 20 25 15 0 -17 32 -40 55 -40 28 0 35
16 35 80 0 48 33 175 49 184 4 3 11 -36 15 -87 8 -110 21 -141 59 -145 17 -2
27 1 28 10 3 56 40 212 54 226 3 3 5 -22 5 -55 0 -33 4 -85 10 -114 23 -124
136 -133 156 -11 8 54 -8 55 -29 2 -18 -46 -43 -52 -57 -14 -6 14 -10 77 -10
140 l0 114 -35 17 c-27 13 -37 14 -49 4 -16 -13 -56 -136 -56 -172 0 -12 -3
-19 -6 -16 -4 3 -9 43 -13 89 -6 76 -8 83 -33 97 -24 14 -28 14 -45 -2 -11 -9
-28 -43 -39 -74 l-19 -58 -3 67 c-3 61 -5 67 -28 72 -14 4 -29 4 -34 1 -6 -4
-10 -58 -10 -120 0 -116 -15 -177 -46 -189 -29 -11 -39 27 -44 163 l-5 136
-32 3 c-21 2 -33 -1 -33 -9 0 -8 -6 -6 -18 4 -10 10 -35 17 -56 17 -74 0 -116
-77 -116 -213 0 -55 -4 -80 -16 -91 -19 -19 -28 -20 -42 -3 -20 24 -25 96 -11
177 15 96 10 104 -63 95 -43 -5 -47 -4 -50 17 -5 34 -52 37 -73 4 -13 -19 -14
-29 -6 -45 17 -32 13 -52 -26 -131 l-38 -75 -3 120 c-2 80 -7 122 -15 127 -18
11 -57 10 -57 -3 0 -5 -10 -3 -22 5 -12 9 -39 16 -58 16 -67 0 -110 -74 -112
-193 -1 -66 -18 -127 -36 -127 -16 1 -31 17 -37 43 -6 24 -5 27 19 27 25 0 26
2 26 65 0 62 -1 65 -24 65 -23 0 -25 4 -28 53 -3 51 -4 52 -35 55 -18 2 -33
-1 -33 -7 0 -6 -14 -2 -31 8 -24 15 -38 17 -61 10 -42 -12 -58 -27 -80 -76
-19 -42 -20 -43 -68 -43 -43 0 -50 3 -50 20 0 15 7 20 25 20 34 0 48 29 29 64
-19 37 -19 36 21 36 28 0 35 4 35 19 0 16 -10 21 -47 27 -55 8 -63 16 -63 66
0 25 -6 40 -18 47 -18 10 -50 95 -54 146 -4 36 -36 46 -60 18z m-410 -98 c82
-25 107 -83 55 -131 -39 -36 -146 -86 -197 -91 l-44 -5 9 45 c14 78 40 171 51
185 14 16 63 15 126 -3z m440 -82 c6 -20 9 -40 7 -43 -5 -9 -96 -33 -101 -27
-7 6 61 107 72 107 6 0 16 -16 22 -37z m-758 -153 l0 -130 -24 0 c-13 0 -28 6
-34 13 -30 36 -15 148 29 211 13 20 25 36 27 36 1 0 2 -58 2 -130z m775 -60
l0 -65 -79 -3 c-89 -3 -106 5 -82 39 19 28 21 79 4 80 -40 3 47 17 97 16 l60
-2 0 -65z m349 -16 c9 -8 16 -24 16 -35 0 -16 -7 -19 -50 -19 -56 0 -62 11
-28 47 25 27 41 29 62 7z m352 -19 c17 -41 18 -80 3 -143 -12 -50 -50 -95 -73
-86 -33 13 -48 140 -25 201 26 70 72 83 95 28z m580 21 c28 -21 28 -166 -1
-214 -29 -47 -65 -42 -83 13 -18 54 -7 155 19 190 23 29 37 31 65 11z m-1906
-32 c0 -21 -5 -24 -35 -24 -32 0 -35 3 -35 28 0 26 2 28 35 24 29 -3 35 -8 35
-28z m190 6 c0 -23 -4 -30 -20 -30 -24 0 -25 5 -2 35 22 31 22 31 22 -5z m120
-168 c0 -10 -22 -32 -32 -32 -4 0 -8 9 -8 20 0 13 7 20 20 20 11 0 20 -4 20
-8z m470 -12 c-6 -11 -19 -24 -30 -30 -15 -8 -21 -6 -30 9 -17 33 -12 41 30
41 37 0 40 -2 30 -20z m200 8 c0 -18 -31 -48 -50 -48 -21 0 -40 20 -40 42 0
15 8 18 45 18 28 0 45 -4 45 -12z m364 -205 c-7 -77 -29 -118 -64 -118 -29 0
-45 25 -37 57 7 27 84 128 97 128 5 0 7 -30 4 -67z"/>
</g>
</svg>
